<?xml version="1.0" encoding="UTF-8"?>
<svg id="Layer_2" xmlns="http://www.w3.org/2000/svg" version="1.1" viewBox="0 0 326.1 377.1">
  <!-- Generator: Adobe Illustrator 29.1.0, SVG Export Plug-In . SVG Version: 2.1.0 Build 142)  -->
  <defs>
    <style>
      .st0, .st1 {
        fill: #2b2b2b;
      }

      .st1 {
        fill-rule: evenodd;
      }
    </style>
  </defs>
  <g id="Layer_1-2">
    <g>
      <path id="Fill-1" class="st1" d="M152.4,40.5c-3.9.5-7.8,1-11.6,1.6l1.4,44,48.8,25.5c1.4-.7,2.8-1.4,4.3-2.1l-40.8-27.7-6.7,2.3,4.6-43.6h0Z"/>
      <path id="Fill-3" class="st1" d="M128.8,44.2c-4,.8-7.7,1.7-11.2,2.6l-.6,50.1,50.6,25.8c1.9-.9,3.8-1.8,5.8-2.7l-43.9-28.9-7,3.1,6.3-50h0Z"/>
      <path id="Fill-5" class="st1" d="M139.8,42.3c-3.4.5-6.8,1.1-10,1.7l-.2,47.1,50.2,25.9c1.6-.8,3.3-1.6,5-2.4l-42.7-28.5-7,2.5,4.7-46.3h0Z"/>
      <path id="Fill-7" class="st1" d="M173.3,38.2c-3.1.3-6.2.6-9.3,1l2.2,38.9-6.7,2.2,3.5-40.9c-3.2.3-6.4.7-9.6,1.1l1,41.4,47.4,24.4c1.4-.7,2.7-1.4,4.1-2.1l-39.5-26.2,44.7,23.4c1.3-.7,2.7-1.4,4-2.1l-37.2-25.1-6.8,2.3,2.2-38.3h0Z"/>
      <path id="Fill-9" class="st1" d="M184,37.2c-3.2.3-6.4.6-9.6.9l3.5,36.1,42,22.5c1.2-.7,2.4-1.3,3.6-2l-35.5-23.9-5.8,2.1,1.8-35.7h0Z"/>
      <path id="Fill-11" class="st1" d="M60.3,73.1c-6,3.7-10.9,7-14.3,9.4l-1.5,59.7s-11.5,8.2-15.8,11.9c-4.3,3.6-12.2,11.1-12.2,11.1v14.8s9.6-13.2,16.3-19.5c6.5-6.1,15-13,15-13l-1.5-2.2,53.3,24.1c.9-.8,2.9-2.8,5.9-5.5l-46.2-30.3-7.2,5.8,8.2-66.3h0Z"/>
      <path id="Fill-13" class="st1" d="M74.9,64.7c-4.8,2.6-9.2,5.2-13.2,7.6l-2.5,61.2,54,23.4c1.9-1.7,4-3.4,6.2-5.2l-45.3-29.4-7.2,5.3c0,0,8-62.9,8-62.9Z"/>
      <path id="Fill-15" class="st1" d="M194.8,36.1c-3.2.3-6.5.6-9.8.9l2.9,33.6,40,21.3c1.3-.8,2.6-1.5,3.8-2.3l-33.5-22.5-6.3,2.2,2.9-33.2Z"/>
      <path id="Fill-17" class="st1" d="M116.5,47.1c-.3,0-.5,0-.8.2-3.9,1.1-7.8,2.5-11.6,3.9l-1.3,53.1,51.9,24.6c2-1,4.1-2,6.3-3l-43.9-29-7.5,3.8,6.9-53.6h0Z"/>
      <path id="Fill-19" class="st1" d="M103.1,51.6c-4.6,1.7-9.1,3.6-13.4,5.7l-1.3,55.6-7.3,4.7,7.6-59.8c-4.5,2.1-8.8,4.3-12.9,6.5l-1.8,58.1,52.5,23.8c1.9-1.4,3.9-2.8,5.8-4.2l-44.1-28.9,51.7,23.8c2.1-1.3,4.1-2.5,6.2-3.6.1-.1.3-.1.4-.2l-43.9-28.7-7.4,4.2,7.9-57h0Z"/>
      <path id="Fill-21" class="st1" d="M258,22.6c-2.7,1.1-5.5,2.2-8.5,3.3v19.2c.1,0,24.9,5.4,24.9,5.4,1.4-2.1,2.7-4.2,3.9-6.3l-18.8-5.3-4.8,3.1,3.3-19.4Z"/>
      <path id="Fill-23" class="st1" d="M248.6,26.2c-2.9,1-5.9,2-9,2.9l-.2,21.3,28.7,8.8c1.2-1.5,2.3-3,3.4-4.5l-21.8-9.7-5,2.6,3.9-21.4h0Z"/>
      <path id="Fill-25" class="st1" d="M275.9,13.9c-2.3,1.3-4.8,2.6-7.5,3.9v14.3c-.1,0-4.9,3.8-4.9,3.8l4.1-17.7c-2.7,1.3-5.6,2.6-8.7,3.9l.6,16.6,21.2,1.2c1.2-2.1,2.3-4.2,3.3-6.3l-15.4-1.6,17.3-2.2c.9-2,1.8-3.9,2.6-5.8l-11.8.7-3.6,3.3,2.8-14.1h0Z"/>
      <path id="Fill-27" class="st1" d="M238.7,29.3c-1.4.4-2.8.8-4.2,1.1-1.7.4-3.4.8-5.3,1.2v23.5h-.1l32.2,11.9c1.1-1.2,2.2-2.4,3.3-3.6l-25.3-13-5,2.4,4.4-23.5h0Z"/>
      <path id="Fill-29" class="st1" d="M296.5,0s-1.4,1.3-4.1,3.3l-1.1,5.2-2.2,2.8,1.2-6.4c-1.4,1-3.1,2.2-4.9,3.4l-1.2,8.8-2.4,2.7,2.3-10.8c-2.2,1.4-4.6,2.9-7.3,4.4v11.3c-.1,0,13.3-4.9,13.3-4.9.7-1.8,1.4-3.5,1.9-5.2l-6.9,1.4,8.1-4.7C295.6,4.4,296.5,0,296.5,0"/>
      <path id="Fill-31" class="st1" d="M205.9,35c-3.2.4-6.6.7-10,1l2.4,31.1,38.5,19.3c1.3-.8,2.6-1.7,3.8-2.5l-31.5-20.9-6.2,2.4,3-30.4h0Z"/>
      <polygon id="Fill-33" class="st1" points="218.8 59.4 218.8 59.4 218.7 59.3 218.8 59.4"/>
      <path id="Fill-35" class="st1" d="M217.8,33.5c-3.5.5-7.2.9-11,1.4l2.3,28.2,35.9,17.9c.9-.6,1.8-1.3,2.6-1.9.5-.3.9-.7,1.4-1l-30.2-18.7-5.4,2.1s4.4-28,4.4-28Z"/>
      <path id="Fill-37" class="st1" d="M229,55.1h0Z"/>
      <path id="Fill-39" class="st1" d="M228.2,31.8c-2.9.6-6,1.1-9.3,1.5v25.9c.1,0,0,0,0,0l34.9,14.9c1.2-1,2.3-2.1,3.5-3.1l-28.1-16-5.2,2.3,4.3-25.6h0Z"/>
      <path id="Fill-41" class="st1" d="M323.8,188.6c0,3.1-2.2,5.2-4.9,5.2s-4.9-2.1-4.9-5.2,2.2-5.2,4.9-5.2c2.6,0,4.9,2.1,4.9,5.2ZM318.9,195.5c3.7,0,7.2-2.5,7.2-6.9s-3.5-6.9-7.2-6.9-7.2,2.5-7.2,6.9,3.5,6.9,7.2,6.9ZM317.8,187.9v-1.7h1.1c.5,0,1.4,0,1.4.8s-.3.9-1,.9h-1.5ZM317.8,189.2h.6l1.7,3.1h1.7l-1.9-3.2c1.3-.1,2.1-.6,2.1-2s-1.2-2.3-3.1-2.3h-2.8v7.5h1.7v-3.1h0Z"/>
      <path id="Fill-43" class="st1" d="M238.5,208.1c0-7.7-2.7-12.7-15.4-12.7s-15.7,4-15.7,17.7,2.6,17.7,15.8,17.7,15.3-6,15.3-13.3h-12.6v3.6c0,1.7-.8,2.8-2.7,2.8s-2.7-1.1-2.7-2.8v-16.1c0-1.7.8-2.8,2.7-2.8s2.7,1.1,2.7,2.8v3h12.6Z"/>
      <path id="Fill-45" class="st1" d="M120.7,203.3v6.2h2.6c1.6,0,2.6-1.4,2.6-3.1s-1-3.1-2.6-3.1h-2.6ZM120.7,216v6.7h2.6c1.9,0,2.9-1.8,2.9-3.8s-1.1-2.9-2.7-2.9h-2.8ZM108.3,229.6v-28.9c0-.9-.5-1.5-1.1-1.8-.3-.2-.6-.3-.9-.3s-.4-.1-.6-.1v-2.1h20.3c9.6-.1,12.4,2.7,12.4,8s-3.3,7.4-8.1,8.2c5.2.7,8.8,2.7,8.8,8.4s-2.4,8.6-10.8,8.6h-20Z"/>
      <path id="Fill-47" class="st1" d="M144.2,229.6v-28.7c0-1.1-.5-1.7-1.1-2-.3-.2-.6-.3-.9-.3s-.4-.1-.6-.1v-2.1h15.4c0-.1,0,25.3,0,25.3h11v7.9h-23.8Z"/>
      <path id="Fill-49" class="st1" d="M39,229.6v-28.7c0-1.1-.5-1.7-1.1-2-.3-.2-.6-.3-.9-.3s-.4-.1-.6-.1v-2.1h15.4c0-.1,0,25.3,0,25.3h11v7.9h-23.8Z"/>
      <path id="Fill-51" class="st1" d="M66.6,229.6v-28.7c0-1.1-.5-1.7-1.1-2-.3-.2-.6-.3-.9-.3s-.4-.1-.6-.1v-2.1h15.4c0-.1,0,25.3,0,25.3h11v7.9h-23.8Z"/>
      <path id="Fill-53" class="st1" d="M311.5,205.4c0-5.5-2.7-10.3-15.1-10.3s-15,3.5-15,11.7c0,12.4,18,7.5,18,15s-1.3,2.9-3,2.9-1.7-.5-2.1-1.2c-.4-.8-.5-1.9-.5-3.2h-12.7c-.6,9.7,8,10.8,16.3,10.8s15-2.8,15-11.7-18.1-8.5-18.1-14.8.9-2.5,2.3-2.5,2.1.3,2.5.9c.4.6.5,1.5.5,2.6l11.9-.2h0Z"/>
      <path id="Fill-55" class="st1" d="M170.8,229.6l7.7-28.8c.2-1,0-1.7-.6-2-.3-.2-.4-.2-.7-.3-.2,0-.4-.1-.6-.1v-2.1h20.7l8.7,33.3h-13.1l-.9-5.2h-7l-.9,5.2h-13.3ZM188.5,203.2l-2.6,14.8h5.1l-2.5-14.8Z"/>
      <g id="Group-59">
        <path id="Fill-57" class="st1" d="M0,229.4l7.7-28.8c.2-1,0-1.7-.6-2-.3-.2-.4-.2-.7-.3-.2,0-.4,0-.6,0v-2.1h20.6l8.7,33.3h-13.1l-.9-5.2h-7l-.9,5.2H0ZM17.7,203l-2.6,14.8h5.1l-2.5-14.8Z"/>
      </g>
      <path id="Fill-60" class="st1" d="M240.6,196.2h15.4c0-.1,0,9.2,0,9.2l9.1-9.2h14.9l-12.9,12.7,12.4,20.6h-13.5l-7.2-12.4-2.8,2.7v9.6h-12.8v-28.6c0-1.1-.5-1.7-1.1-2-.3-.2-.6-.3-.9-.3s-.4-.1-.6-.1v-2.2h0Z"/>
    </g>
  </g>
  <g>
    <path class="st0" d="M37.4,377.1H4.9l53.4-58.7-53.2-58.1h33.2l37.3,40.7,37.4-40.7h33l-54,59.1,52.7,57.7h-32.7l-37.2-40.5-37.4,40.5Z"/>
    <path class="st0" d="M230.6,358.9l52.4-98.6h29.2l-64.7,116.8h-33.7l-64.9-116.8h29.2l52.5,98.6Z"/>
  </g>
</svg>